<?xml version="1.0" encoding="UTF-8" standalone="no"?>
<!DOCTYPE svg PUBLIC "-//W3C//DTD SVG 1.1//EN" "http://www.w3.org/Graphics/SVG/1.1/DTD/svg11.dtd">
<svg width="100%" height="100%" viewBox="0 0 512 512" version="1.1" xmlns="http://www.w3.org/2000/svg" xmlns:xlink="http://www.w3.org/1999/xlink" xml:space="preserve" xmlns:serif="../www.serif.com/default.htm" style="fill-rule:evenodd;clip-rule:evenodd;stroke-linejoin:round;stroke-miterlimit:2;">
    <path d="M386.641,256C386.641,247.715 393.355,241 401.641,241L432.625,241C425.398,155.195 356.805,86.602 271,79.375L271,110.359C271,118.645 264.285,125.359 256,125.359C247.715,125.359 241,118.645 241,110.359L241,79.375C155.195,86.602 86.602,155.195 79.375,241L110.359,241C118.645,241 125.359,247.715 125.359,256C125.359,264.285 118.645,271 110.359,271L79.375,271C86.602,356.805 155.195,425.398 241,432.625L241,401.641C241,393.355 247.715,386.641 256,386.641C264.285,386.641 271,393.355 271,401.641L271,432.625C356.805,425.398 425.398,356.805 432.625,271L401.641,271C393.355,271 386.641,264.285 386.641,256ZM333.797,333.797C330.867,336.727 327.027,338.191 323.191,338.191C319.352,338.191 315.512,336.727 312.586,333.797L245.395,266.605C242.578,263.793 241,259.98 241,256L241,176.91C241,168.629 247.715,161.91 256,161.91C264.285,161.91 271,168.629 271,176.91L271,249.785L333.797,312.586C339.656,318.441 339.656,327.937 333.797,333.797Z" style="fill:#007EC5;fill-rule:nonzero;"/>
    <path d="M256,0C114.613,0 0,114.613 0,256C0,397.387 114.613,512 256,512C397.387,512 512,397.387 512,256C512,114.613 397.387,0 256,0ZM256,463.266C141.715,463.266 48.734,370.285 48.734,256C48.734,141.715 141.715,48.734 256,48.734C370.285,48.734 463.266,141.715 463.266,256C463.266,370.285 370.285,463.266 256,463.266Z" style="fill:#007EC5;fill-rule:nonzero;"/>
</svg>
