<?xml version="1.0" encoding="UTF-8" standalone="no"?>
<!DOCTYPE svg PUBLIC "-//W3C//DTD SVG 1.1//EN" "http://www.w3.org/Graphics/SVG/1.1/DTD/svg11.dtd">
<svg width="100%" height="100%" viewBox="0 0 512 512" version="1.1" xmlns="http://www.w3.org/2000/svg" xmlns:xlink="http://www.w3.org/1999/xlink" xml:space="preserve" xmlns:serif="../www.serif.com/default.htm" style="fill-rule:evenodd;clip-rule:evenodd;stroke-linejoin:round;stroke-miterlimit:2;">
    <g>
        <path d="M91,76L91,91L61,91L61,121L301,121L301,91L271,91L271,76C271,45.26 252.468,17.913 226,6.332L226,61L196,61L196,0L166,0L166,61L136,61L136,6.332C109.532,17.913 91,45.26 91,76Z" style="fill:#007EC5;fill-rule:nonzero;"/>
        <path d="M512,181L482,181L482,196L452,196L452,181L407,181C382.147,181 362,201.147 362,226L362,241L407,241L407,301L392,301L392,512L452,512L452,301L437,301L437,241L452,241L452,226L482,226L482,241L512,241L512,181Z" style="fill:#007EC5;fill-rule:nonzero;"/>
        <path d="M286,331L256,331L256,391L106,391L106,331L76,331L76,512L286,512L286,331Z" style="fill:#007EC5;fill-rule:nonzero;"/>
        <path d="M46,337.332C19.532,348.913 0,375.26 0,406L0,512L46,512L46,337.332Z" style="fill:#007EC5;fill-rule:nonzero;"/>
        <path d="M362,406C362,375.26 342.468,348.913 316,337.332L316,512L362,512L362,406Z" style="fill:#007EC5;fill-rule:nonzero;"/>
        <path d="M136,181L226,181C245.53,181 262.024,168.422 268.237,151L93.763,151C99.976,168.422 116.47,181 136,181Z" style="fill:#007EC5;fill-rule:nonzero;"/>
        <path d="M91,241C91,280.13 116.124,313.09 151,325.489L151,331L136,331L136,361L226,361L226,331L211,331L211,325.489C245.876,313.091 271,280.13 271,241C287.569,241 301,227.567 301,211C301,198.851 293.701,188.504 283.318,183.787C269.195,200.695 247.524,211 226,211L136,211C114.875,211 93.045,200.982 78.682,183.787C68.299,188.504 61,198.851 61,211C61,227.567 74.431,241 91,241Z" style="fill:#007EC5;fill-rule:nonzero;"/>
    </g>
</svg>
