<?xml version="1.0" encoding="UTF-8" standalone="no"?>
<!DOCTYPE svg PUBLIC "-//W3C//DTD SVG 1.1//EN" "http://www.w3.org/Graphics/SVG/1.1/DTD/svg11.dtd">
<svg width="100%" height="100%" viewBox="0 0 437 437" version="1.1" xmlns="http://www.w3.org/2000/svg" xmlns:xlink="http://www.w3.org/1999/xlink" xml:space="preserve" xmlns:serif="../www.serif.com/default.htm" style="fill-rule:evenodd;clip-rule:evenodd;stroke-linejoin:round;stroke-miterlimit:2;">
    <path d="M404.38,55.224L404.364,204.168C404.364,211.544 401.436,218.632 396.204,223.848L218.988,401.064L221.708,403.784C234.204,416.28 254.46,416.28 266.956,403.784L426.988,243.784C433.004,237.784 436.38,229.64 436.38,221.16L436.38,87.224C436.38,69.544 422.06,55.224 404.38,55.224Z" style="fill:#007EC5;fill-rule:nonzero;"/>
    <path d="M340.38,23.224C358.061,23.225 372.38,37.544 372.38,55.224L372.38,189.192C372.38,197.688 369.004,205.832 363.004,211.848L188.604,386.216C176.108,398.712 155.852,398.712 143.356,386.216L9.372,252.232C-3.124,239.72 -3.124,219.464 9.372,206.968L183.772,32.6C189.772,26.6 197.915,23.224 206.396,23.224L340.38,23.224ZM144.73,212.398L130.291,226.837L189.15,285.697L175.313,299.534L116.453,240.675L79.453,277.675L60,258.222L97,221.222L86.973,211.195L100.811,197.357L110.838,207.385L125.277,192.946L115.25,182.918L132.095,166.073L142.123,176.1L206.998,111.224L253.023,157.249C266.192,170.418 274.816,181.715 278.893,191.141C283.105,200.566 283.907,210.66 281.3,221.423C278.693,232.185 273.345,241.611 265.256,249.699C257.101,257.855 248.845,263.102 240.489,265.442C232.133,267.782 223.878,268.049 215.722,266.244C207.567,264.439 199.628,260.946 191.908,255.766C184.187,250.585 176.883,244.552 169.998,237.667L144.73,212.398ZM186.844,220.821C191.323,225.3 195.952,229.227 200.731,232.603C205.511,235.979 210.374,238.268 215.321,239.472C220.268,240.675 225.231,240.591 230.211,239.221C235.192,237.851 240.188,234.659 245.202,229.645C249.547,225.3 252.405,220.804 253.775,216.158C255.146,211.513 255.363,206.816 254.427,202.07C253.491,197.324 251.553,192.611 248.611,187.932C245.67,183.253 241.993,178.707 237.581,174.295L210.207,146.921L161.575,195.553L186.844,220.821ZM284.38,135.224C271.132,135.224 260.38,124.472 260.38,111.224C260.38,97.976 271.132,87.224 284.38,87.224C297.628,87.224 308.38,97.976 308.38,111.224C308.38,124.472 297.628,135.224 284.38,135.224Z" style="fill:#007EC5;"/>
</svg>
