<?xml version="1.0"?>
<svg xmlns="http://www.w3.org/2000/svg" viewBox="0 0 64 64" width="512" height="512" fill="#007EC5"><g id="Engineer-2" data-name="Engineer"><path d="M30,30v2a1,1,0,0,1-2,0,1,1,0,0,0,0,2H56a1,1,0,0,0,0-2,1,1,0,0,1-2,0V30a11.955,11.955,0,0,0-8-11.3V25a1,1,0,0,1-2,0V17a1,1,0,0,0-1-1H41a1,1,0,0,0-1,1v8a1,1,0,0,1-2,0V18.69A11.937,11.937,0,0,0,30,30Zm10-1a1,1,0,0,1,1,1v1h2V30a1,1,0,0,1,1-1h8a1,1,0,0,1,0,2H45v1a1,1,0,0,1-1,1H40a1,1,0,0,1-1-1V31H33a1,1,0,0,1,0-2Z"/><path d="M39,49.574V51a3,3,0,0,0,6,0V49.574a10.776,10.776,0,0,1-6,0Z"/><path d="M51,39V36H33v3a9,9,0,0,0,18,0Z"/><path d="M14.373,31.873a1,1,0,0,1,1.154-.187,12.323,12.323,0,0,0,1.776.731,1,1,0,0,1,.7.953V38h6V35a1,1,0,0,1,1-1v-.63l.036-.013A2.891,2.891,0,0,1,28,30a13.918,13.918,0,0,1,5.706-11.274.963.963,0,0,1-.289-.423c-.184-.578-1.423-2.159-1.731-2.776a1,1,0,0,1,.187-1.154L35.146,11.1,30.9,6.854l-3.273,3.273a1,1,0,0,1-1.154.187A12.323,12.323,0,0,0,24.7,9.583,1,1,0,0,1,24,8.63V4H18V8.63a1,1,0,0,1-.7.953,12.323,12.323,0,0,0-1.776.731,1,1,0,0,1-1.154-.187L11.1,6.854,6.854,11.1l3.273,3.273a1,1,0,0,1,.187,1.154A12.323,12.323,0,0,0,9.583,17.3a1,1,0,0,1-.953.7H4v6H8.63a1,1,0,0,1,.953.7,12.323,12.323,0,0,0,.731,1.776,1,1,0,0,1-.187,1.154L6.854,30.9,11.1,35.146ZM21,13a8,8,0,1,1-8,8A8.009,8.009,0,0,1,21,13Z"/><circle cx="21" cy="21" r="6"/><path d="M42,56a5.009,5.009,0,0,1-4.9-4H30v8H54V52H46.9A5.009,5.009,0,0,1,42,56Z"/><path d="M60,57a5.008,5.008,0,0,0-4-4.9V60h4Z"/><path d="M53,36v1.731A2,2,0,0,0,54,36Z"/><path d="M31,36H30a2,2,0,0,0,1,1.731Z"/><path d="M24,60h4V52.1A5.008,5.008,0,0,0,24,57Z"/></g></svg>
