<svg id="Solid" height="512" viewBox="0 0 512 512" width="512" xmlns="http://www.w3.org/2000/svg" fill="#007EC5">
    <path d="m344 264h-176v-16h176zm-312-160h448v360a8.009 8.009 0 0 1 -8 8h-432a8.009 8.009 0 0 1 -8-8zm264 312a24.028 24.028 0 0 0 -24-24h-32a24 24 0 0 0 0 48h32a24.028 24.028 0 0 0 24-24zm-88-272a8 8 0 0 0 8 8h80a8 8 0 0 0 0-16h-80a8 8 0 0 0 -8 8zm-56 64a8 8 0 0 0 8 8h192a8 8 0 0 0 8-8v-32a8 8 0 0 0 -8-8h-192a8 8 0 0 0 -8 8zm0 64a8 8 0 0 0 8 8h192a8 8 0 0 0 8-8v-32a8 8 0 0 0 -8-8h-192a8 8 0 0 0 -8 8zm0 96a8 8 0 0 0 8 8h192a8 8 0 0 0 8-8v-64a8 8 0 0 0 -8-8h-192a8 8 0 0 0 -8 8zm192-56h-176v48h176zm136-264v40h-448v-40a8.009 8.009 0 0 1 8-8h432a8.009 8.009 0 0 1 8 8zm-416 16a8 8 0 1 0 -8 8 8 8 0 0 0 8-8zm32 0a8 8 0 1 0 -8 8 8 8 0 0 0 8-8zm32 0a8 8 0 1 0 -8 8 8 8 0 0 0 8-8zm216 120h-176v16h176zm-72 224h-32a8 8 0 0 0 0 16h32a8 8 0 0 0 0-16z" /></svg>