<svg id="Layer_1" enable-background="new 0 0 64 64" height="512" viewBox="0 0 64 64" width="512" xmlns="http://www.w3.org/2000/svg" fill="#007EC5"><path d="m22 17h20c.6 0 1-.4 1-1s-.4-1-1-1h-20c-.6 0-1 .4-1 1s.4 1 1 1z"/><path d="m36 7.1v3.9h-2v-5c0-1.1-.9-2-2-2s-2 .9-2 2v5h-2v-3.9c-3.1.4-5.5 2.9-5.9 5.9h19.8c-.4-3.1-2.8-5.5-5.9-5.9z"/><path d="m44.2 42c.4-1.2 1.5-2 2.8-2h2c1.3 0 2.4.8 2.8 2h2.2c-.2-2.6-2-4.7-4.5-5.4l-2.8-.7-3.3 6.1z"/><path d="m47 42c-.6 0-1 .4-1 1v1h4v-1c0-.6-.4-1-1-1z"/><path d="m14.5 36.6c-2.7.7-4.5 3.1-4.5 5.8v17.6h9v-10h2v10h9.3l-13-24.1z"/><path d="m55 44h-3v2h-8v-2h-3c-.6 0-1 .4-1 1v14c0 .6.4 1 1 1h14c.6 0 1-.4 1-1v-14c0-.6-.4-1-1-1zm-1 14h-12v-2h12zm0-4h-12v-2h12zm0-4h-12v-2h12z"/><path d="m41.1 42 3.5-6.6-3.5-.9-8.1 11.8v10.7l5-9.3v-2.7c0-1.7 1.3-3 3.1-3z"/><path d="m38.3 34.7-2.5 1.3c-2.4 1.3-5.3 1.3-7.7 0l-2.4-1.3c-.2-.1-.4-.2-.6-.4l6.8 9.9 6.8-9.9c0 .2-.2.3-.4.4z"/><path d="m38 52-4.3 8h4.5c-.1-.3-.2-.7-.2-1z"/><path d="m19.4 35.4 11.6 21.6v-10.7l-8.1-11.7z"/><path d="m20.7 24.4 1.3.6c0 3.3 1.8 6.3 4.7 7.9l2.4 1.3c1.8 1 4 1 5.7 0l2.4-1.3c2.9-1.6 4.7-4.6 4.7-7.9l1.3-.6c.4-.2.7-.7.7-1.2v-1c0-.7-.6-1.3-1.3-1.3h-.6v-2h-20v2h-.7c-.7 0-1.3.6-1.3 1.3v1c0 .6.3 1 .7 1.2z"/></svg>